<svg width="28" height="22" viewBox="0 0 28 22" fill="none" xmlns="http://www.w3.org/2000/svg">
<path fill-rule="evenodd" clip-rule="evenodd" d="M27.843 18.1744C25.4484 19.9434 23.128 21.0175 20.8402 21.7293C20.8038 21.7407 20.7645 21.727 20.7418 21.6958C20.2135 20.9559 19.7337 20.1756 19.3129 19.3565C19.2887 19.3086 19.3106 19.2507 19.3606 19.2317C20.1227 18.9417 20.8477 18.5953 21.5455 18.1858C21.6008 18.153 21.6038 18.0739 21.5531 18.0358C21.4055 17.9254 21.2587 17.809 21.1187 17.6925C21.0922 17.6712 21.0566 17.6666 21.0271 17.6811C16.4983 19.7859 11.5374 19.7859 6.95487 17.6811C6.92536 17.6681 6.88979 17.6727 6.86481 17.694C6.7248 17.8097 6.57798 17.9254 6.43116 18.0358C6.38045 18.0739 6.38424 18.153 6.43948 18.1858C7.13727 18.5877 7.8623 18.9417 8.62365 19.2325C8.6736 19.2515 8.69706 19.3086 8.67209 19.3565C8.26114 20.1771 7.78056 20.9566 7.24246 21.6965C7.219 21.727 7.18041 21.7407 7.14408 21.7293C4.86682 21.0175 2.54718 19.9434 0.151864 18.1744C0.132186 18.1584 0.117807 18.134 0.115537 18.1081C-0.371852 12.8534 0.622603 7.53323 4.25229 2.0783C4.26137 2.06384 4.27424 2.05242 4.29013 2.04633C6.07546 1.22117 7.98944 0.614471 9.98895 0.268115C10.0253 0.262786 10.0616 0.279533 10.0805 0.311504C10.328 0.752252 10.6103 1.31632 10.8018 1.77762C12.9095 1.4541 15.0505 1.4541 17.2029 1.77762C17.3936 1.32622 17.6661 0.752252 17.912 0.311504C17.931 0.278011 17.9673 0.261264 18.0036 0.268115C20.0046 0.615233 21.9186 1.22269 23.7032 2.04633C23.7191 2.05242 23.732 2.06384 23.7395 2.07983C26.9015 6.75754 28.4636 12.0343 27.8793 18.1097C27.877 18.1355 27.8642 18.1584 27.843 18.1744ZM9.35701 14.9087C10.7586 14.9087 11.8734 13.6352 11.8734 12.0701C11.8954 10.5172 10.7692 9.23151 9.35701 9.23151C7.95538 9.23151 6.8406 10.5058 6.8406 12.0701C6.8406 13.6352 7.97733 14.9087 9.35701 14.9087ZM18.6605 14.9087C20.0735 14.9087 21.1769 13.6352 21.1769 12.0701C21.1989 10.5172 20.0735 9.23151 18.6605 9.23151C17.2589 9.23151 16.1441 10.5058 16.1441 12.0701C16.1441 13.6352 17.2809 14.9087 18.6605 14.9087Z" fill="white"/>
<path fill-rule="evenodd" clip-rule="evenodd" d="M27.843 18.1744C25.4484 19.9434 23.128 21.0175 20.8402 21.7293C20.8038 21.7407 20.7645 21.727 20.7418 21.6958C20.2135 20.9559 19.7337 20.1756 19.3129 19.3565C19.2887 19.3086 19.3106 19.2507 19.3606 19.2317C20.1227 18.9417 20.8477 18.5953 21.5455 18.1858C21.6008 18.153 21.6038 18.0739 21.5531 18.0358C21.4055 17.9254 21.2587 17.809 21.1187 17.6925C21.0922 17.6712 21.0566 17.6666 21.0271 17.6811C16.4983 19.7859 11.5374 19.7859 6.95487 17.6811C6.92536 17.6681 6.88979 17.6727 6.86481 17.694C6.7248 17.8097 6.57798 17.9254 6.43116 18.0358C6.38045 18.0739 6.38424 18.153 6.43948 18.1858C7.13727 18.5877 7.8623 18.9417 8.62365 19.2325C8.6736 19.2515 8.69706 19.3086 8.67209 19.3565C8.26114 20.1771 7.78056 20.9566 7.24246 21.6965C7.219 21.727 7.18041 21.7407 7.14408 21.7293C4.86682 21.0175 2.54718 19.9434 0.151864 18.1744C0.132186 18.1584 0.117807 18.134 0.115537 18.1081C-0.371852 12.8534 0.622603 7.53323 4.25229 2.0783C4.26137 2.06384 4.27424 2.05242 4.29013 2.04633C6.07546 1.22117 7.98944 0.614471 9.98895 0.268115C10.0253 0.262786 10.0616 0.279533 10.0805 0.311504C10.328 0.752252 10.6103 1.31632 10.8018 1.77762C12.9095 1.4541 15.0505 1.4541 17.2029 1.77762C17.3936 1.32622 17.6661 0.752252 17.912 0.311504C17.931 0.278011 17.9673 0.261264 18.0036 0.268115C20.0046 0.615233 21.9186 1.22269 23.7032 2.04633C23.7191 2.05242 23.732 2.06384 23.7395 2.07983C26.9015 6.75754 28.4636 12.0343 27.8793 18.1097C27.877 18.1355 27.8642 18.1584 27.843 18.1744ZM11.8734 12.0701C11.8734 13.6352 10.7586 14.9087 9.35701 14.9087C7.97733 14.9087 6.8406 13.6352 6.8406 12.0701C6.8406 10.5058 7.95538 9.23151 9.35701 9.23151C10.7692 9.23151 11.8954 10.5172 11.8734 12.0701ZM18.6605 14.9087C20.0735 14.9087 21.1769 13.6352 21.1769 12.0701C21.1989 10.5172 20.0735 9.23151 18.6605 9.23151C17.2589 9.23151 16.1441 10.5058 16.1441 12.0701C16.1441 13.6352 17.2809 14.9087 18.6605 14.9087Z" fill="white"/>
</svg>
