<svg width="26" height="26" viewBox="0 0 26 26" fill="none" xmlns="http://www.w3.org/2000/svg">
<path fill-rule="evenodd" clip-rule="evenodd" d="M12.9971 25.599C15.3002 25.6045 17.4149 25.5464 19.4692 25.4215C20.9276 25.3329 22.192 24.8596 23.2279 24.0149C24.1855 23.234 24.8449 22.1567 25.1879 20.8127C25.5279 19.4804 25.5475 18.0499 25.5664 16.6665C25.5812 15.5835 25.5967 14.3006 25.5999 12.9995C25.5967 11.6982 25.5812 10.4155 25.5664 9.3325C25.5475 7.94913 25.5279 6.5186 25.1879 5.18605C24.8449 3.84211 24.1855 2.76477 23.2279 1.98388C22.192 1.13941 20.9276 0.66614 19.4692 0.577501C17.4149 0.452403 15.3002 0.394754 13.0025 0.399767C10.6998 0.394298 8.58494 0.452403 6.53065 0.577501C5.07225 0.66614 3.80777 1.13941 2.77185 1.98388C1.81432 2.76477 1.15485 3.84211 0.8119 5.18605C0.471911 6.5186 0.452314 7.9489 0.4334 9.3325C0.418588 10.4164 0.403093 11.7 0.399902 13.0022C0.403093 14.2988 0.418588 15.5826 0.4334 16.6665C0.452314 18.0499 0.471911 19.4804 0.8119 20.8127C1.15485 22.1567 1.81432 23.234 2.77185 24.0149C3.80777 24.8594 5.07225 25.3327 6.53065 25.4213C8.58494 25.5464 10.7003 25.6047 12.9971 25.599ZM5.64945 12.9995C5.64945 17.0202 8.92083 20.2912 12.9414 20.2912C16.9623 20.2912 20.2334 17.0202 20.2334 12.9995C20.2334 8.97885 16.9623 5.70786 12.9414 5.70786C8.92083 5.70786 5.64945 8.97885 5.64945 12.9995ZM19.3001 5.12453C19.3001 4.15793 20.0837 3.37453 21.0502 3.37453C22.0168 3.37453 22.8002 4.15793 22.8002 5.12453C22.8002 6.09113 22.0168 6.87453 21.0502 6.87453C20.0837 6.87453 19.3001 6.09113 19.3001 5.12453Z" fill="white"/>
<path d="M12.9414 8.04119C10.2074 8.04119 7.98289 10.2656 7.98289 12.9995C7.98289 15.7334 10.2074 17.9578 12.9414 17.9578C15.6757 17.9578 17.9 15.7334 17.9 12.9995C17.9 10.2656 15.6757 8.04119 12.9414 8.04119Z" fill="white"/>
</svg>
