<svg width="29" height="24" viewBox="0 0 29 24" fill="none" xmlns="http://www.w3.org/2000/svg">
<path d="M10.276 13.7938V13.7956H11.1617L10.276 13.7938Z" fill="white"/>
<path d="M19.1331 13.7938V13.7956H20.0188L19.1331 13.7938Z" fill="white"/>
<path d="M28.9999 11.1033C28.9999 9.12353 27.4109 7.51353 25.457 7.51353C24.6758 7.51353 23.9336 7.77199 23.3278 8.24045C21.3509 6.84943 18.7611 6.02021 16.0065 5.81021L17.4927 2.27791L21.8168 3.30098C21.9549 4.65611 23.0745 5.71867 24.4473 5.71867C25.9123 5.71867 27.1045 4.51072 27.1045 3.02637C27.1045 1.54202 25.9123 0.334072 24.4473 0.334072C23.5191 0.334072 22.7025 0.820481 22.2277 1.55458L17.1739 0.357406C16.7452 0.258688 16.3254 0.479457 16.1553 0.879711L14.1005 5.76174C11.1263 5.86585 8.29201 6.71482 6.15214 8.19379C5.56934 7.75584 4.8466 7.51353 4.07604 7.51353C2.12216 7.51353 0.533203 9.12353 0.533203 11.1033C0.533203 12.4153 1.24 13.6017 2.32411 14.2102C2.30993 14.3681 2.30462 14.5297 2.30462 14.693C2.30462 19.6414 7.86687 23.6673 14.7045 23.6673C21.5404 23.6673 27.1045 19.6414 27.1045 14.693C27.1045 14.553 27.0991 14.4148 27.0903 14.2766C28.2452 13.6807 28.9999 12.4656 28.9999 11.1033ZM24.4473 2.12894C24.9345 2.12894 25.333 2.53099 25.333 3.02637C25.333 3.52175 24.9345 3.9238 24.4473 3.9238C23.9602 3.9238 23.5616 3.52175 23.5616 3.02637C23.5616 2.53099 23.9602 2.12894 24.4473 2.12894ZM8.50458 13.7956C8.50458 12.8066 9.29994 12.0007 10.276 12.0007C11.252 12.0007 12.0474 12.8066 12.0474 13.7956C12.0474 14.7863 11.252 15.5904 10.276 15.5904C9.29994 15.5904 8.50458 14.7863 8.50458 13.7956ZM18.7947 19.7491C17.5725 20.6448 16.1376 21.0935 14.7045 21.0935C13.2715 21.0935 11.8366 20.6448 10.6143 19.7491C10.2175 19.4584 10.129 18.8966 10.4159 18.4963C10.7029 18.0961 11.2574 18.0063 11.6524 18.2953C13.4787 19.6325 15.9304 19.6361 17.7567 18.2953C18.1517 18.0063 18.7044 18.0925 18.9931 18.4963C19.2801 18.8984 19.1898 19.4584 18.7947 19.7491ZM19.1331 15.5904C18.1553 15.5904 17.3617 14.7863 17.3617 13.7956C17.3617 12.8066 18.1553 12.0007 19.1331 12.0007C20.1109 12.0007 20.9045 12.8066 20.9045 13.7956C20.9045 14.7863 20.1109 15.5904 19.1331 15.5904Z" fill="white"/>
</svg>
