<svg width="28" height="23" viewBox="0 0 28 23" fill="none" xmlns="http://www.w3.org/2000/svg">
<path d="M27.5335 2.91842C26.5269 3.36814 25.4544 3.66623 24.3362 3.81097C25.4865 3.1114 26.3645 2.01208 26.7773 0.687032C25.7048 1.33836 24.5206 1.79842 23.2586 2.05516C22.2402 0.950663 20.7888 0.266602 19.2054 0.266602C16.1333 0.266602 13.6601 2.80642 13.6601 5.92002C13.6601 6.36802 13.6973 6.79879 13.7887 7.20888C9.1755 6.97971 5.09351 4.72765 2.35131 1.297C1.87257 2.14303 1.59176 3.1114 1.59176 4.15386C1.59176 6.11128 2.58138 7.84642 4.05651 8.85097C3.16501 8.83374 2.29041 8.57011 1.54946 8.15485C1.54946 8.17208 1.54946 8.19448 1.54946 8.21688C1.54946 10.9635 3.47289 13.2448 5.99516 13.7704C5.54349 13.8961 5.05121 13.9564 4.54033 13.9564C4.18508 13.9564 3.82645 13.9358 3.48981 13.86C4.20876 16.0982 6.24891 17.7438 8.67476 17.7972C6.78686 19.3014 4.38977 20.2078 1.79476 20.2078C1.3397 20.2078 0.903247 20.1871 0.466797 20.1302C2.92479 21.7448 5.83784 22.6666 8.97926 22.6666C19.1902 22.6666 24.7727 14.0512 24.7727 6.5834C24.7727 6.33356 24.7642 6.09232 24.7524 5.85282C25.8536 5.05676 26.779 4.06254 27.5335 2.91842Z" fill="white"/>
</svg>
