<svg width="29" height="20" viewBox="0 0 29 20" fill="none" xmlns="http://www.w3.org/2000/svg">
<path fill-rule="evenodd" clip-rule="evenodd" d="M25.9045 1.25124C27.1237 1.56647 28.0852 2.48924 28.4134 3.6599C29.0232 5.79815 28.9998 10.2552 28.9998 10.2552C28.9998 10.2552 28.9997 14.6895 28.4136 16.828C28.0852 17.9984 27.1239 18.9214 25.9045 19.2364C23.6768 19.7993 14.7665 19.7993 14.7665 19.7993C14.7665 19.7993 5.87937 19.7993 3.62849 19.2141C2.40901 18.8989 1.44776 17.9759 1.11938 16.8055C0.533203 14.6895 0.533203 10.2327 0.533203 10.2327C0.533203 10.2327 0.533203 5.79815 1.11938 3.6599C1.44754 2.48945 2.43246 1.54396 3.62827 1.22893C5.85591 0.666016 14.7663 0.666016 14.7663 0.666016C14.7663 0.666016 23.6768 0.666016 25.9045 1.25124ZM19.3388 10.2327L11.9292 14.3295V6.1359L19.3388 10.2327Z" fill="white"/>
</svg>
